<svg width="52" height="50" viewBox="0 0 52 50" fill="none" xmlns="http://www.w3.org/2000/svg">
<path d="M38.5723 18.1016H40.8579C43.2827 18.1016 45.6082 19.0708 47.3228 20.7962C49.0374 22.5215 50.0007 24.8616 50.0007 27.3016C50.0007 29.7416 49.0374 32.0816 47.3228 33.8069C45.6082 35.5323 43.2827 36.5016 40.8579 36.5016H38.5723" stroke="black" stroke-width="3" stroke-linecap="round" stroke-linejoin="round"/>
<path d="M2 18.1016H38.5708V38.8016C38.5708 41.2416 37.6076 43.5816 35.893 45.3069C34.1784 47.0323 31.8529 48.0016 29.4281 48.0016H11.1427C8.71791 48.0016 6.39243 47.0323 4.67784 45.3069C2.96325 43.5816 2 41.2416 2 38.8016V18.1016Z" stroke="black" stroke-width="3" stroke-linecap="round" stroke-linejoin="round"/>
<path d="M11.1426 2V8.9" stroke="black" stroke-width="3" stroke-linecap="round" stroke-linejoin="round"/>
<path d="M20.2852 2V8.9" stroke="black" stroke-width="3" stroke-linecap="round" stroke-linejoin="round"/>
<path d="M29.4277 2V8.9" stroke="black" stroke-width="3" stroke-linecap="round" stroke-linejoin="round"/>
</svg>
