<svg width="13" height="13" viewBox="0 0 13 13" fill="none" xmlns="http://www.w3.org/2000/svg">
<path d="M3.40469 13H0.861719V4.82422H3.40469V13ZM2.11953 3.73047C1.32656 3.73047 0.670312 3.04688 0.670312 2.22656C0.670312 1.43359 1.32656 0.777344 2.11953 0.777344C2.93984 0.777344 3.59609 1.43359 3.59609 2.22656C3.59609 3.04688 2.93984 3.73047 2.11953 3.73047ZM12.893 13H10.3773V9.03516C10.3773 8.07812 10.35 6.875 9.0375 6.875C7.725 6.875 7.53359 7.88672 7.53359 8.95312V13H4.99062V4.82422H7.42422V5.94531H7.45156C7.80703 5.31641 8.62734 4.63281 9.85781 4.63281C12.4281 4.63281 12.9203 6.32812 12.9203 8.51562V13H12.893Z" fill="#BEBDBD"/>
</svg>
