<svg width="15" height="12" viewBox="0 0 15 12" fill="none" xmlns="http://www.w3.org/2000/svg">
<path d="M12.9561 2.90625C12.9561 3.04297 12.9561 3.15234 12.9561 3.28906C12.9561 7.08984 10.085 11.4375 4.80765 11.4375C3.16702 11.4375 1.66312 10.9727 0.405305 10.1523C0.624055 10.1797 0.842805 10.207 1.0889 10.207C2.42874 10.207 3.65921 9.74219 4.64359 8.97656C3.38577 8.94922 2.31937 8.12891 1.9639 6.98047C2.1553 7.00781 2.31937 7.03516 2.51077 7.03516C2.75687 7.03516 3.0303 6.98047 3.24905 6.92578C1.93655 6.65234 0.95218 5.50391 0.95218 4.10938V4.08203C1.33499 4.30078 1.79984 4.41016 2.26468 4.4375C1.47171 3.91797 0.979524 3.04297 0.979524 2.05859C0.979524 1.51172 1.11624 1.01953 1.36234 0.609375C2.78421 2.33203 4.91702 3.48047 7.29593 3.61719C7.24124 3.39844 7.2139 3.17969 7.2139 2.96094C7.2139 1.375 8.49905 0.0898438 10.085 0.0898438C10.9053 0.0898438 11.6436 0.417969 12.1905 0.992188C12.8194 0.855469 13.4483 0.609375 13.9951 0.28125C13.7764 0.964844 13.3389 1.51172 12.7373 1.86719C13.3116 1.8125 13.8858 1.64844 14.378 1.42969C13.9951 2.00391 13.503 2.49609 12.9561 2.90625Z" fill="#BEBDBD"/>
</svg>
