<svg width="13" height="13" viewBox="0 0 13 13" fill="none" xmlns="http://www.w3.org/2000/svg">
<path d="M6.58969 3.60547C8.31234 3.60547 9.73422 5.02734 9.73422 6.75C9.73422 8.5 8.31234 9.89453 6.58969 9.89453C4.83969 9.89453 3.44516 8.5 3.44516 6.75C3.44516 5.02734 4.83969 3.60547 6.58969 3.60547ZM6.58969 8.80078C7.71078 8.80078 8.61313 7.89844 8.61313 6.75C8.61313 5.62891 7.71078 4.72656 6.58969 4.72656C5.44125 4.72656 4.53891 5.62891 4.53891 6.75C4.53891 7.89844 5.46859 8.80078 6.58969 8.80078ZM10.5819 3.49609C10.5819 3.90625 10.2538 4.23438 9.84359 4.23438C9.43344 4.23438 9.10531 3.90625 9.10531 3.49609C9.10531 3.08594 9.43344 2.75781 9.84359 2.75781C10.2538 2.75781 10.5819 3.08594 10.5819 3.49609ZM12.66 4.23438C12.7147 5.24609 12.7147 8.28125 12.66 9.29297C12.6053 10.2773 12.3866 11.125 11.6756 11.8633C10.9647 12.5742 10.0897 12.793 9.10531 12.8477C8.09359 12.9023 5.05844 12.9023 4.04672 12.8477C3.06234 12.793 2.21469 12.5742 1.47641 11.8633C0.765469 11.125 0.546719 10.2773 0.492032 9.29297C0.437344 8.28125 0.437344 5.24609 0.492032 4.23438C0.546719 3.25 0.765469 2.375 1.47641 1.66406C2.21469 0.953125 3.06234 0.734375 4.04672 0.679688C5.05844 0.625 8.09359 0.625 9.10531 0.679688C10.0897 0.734375 10.9647 0.953125 11.6756 1.66406C12.3866 2.375 12.6053 3.25 12.66 4.23438ZM11.3475 10.3594C11.6756 9.56641 11.5936 7.65234 11.5936 6.75C11.5936 5.875 11.6756 3.96094 11.3475 3.14062C11.1288 2.62109 10.7186 2.18359 10.1991 1.99219C9.37875 1.66406 7.46469 1.74609 6.58969 1.74609C5.68734 1.74609 3.77328 1.66406 2.98031 1.99219C2.43344 2.21094 2.02328 2.62109 1.80453 3.14062C1.47641 3.96094 1.55844 5.875 1.55844 6.75C1.55844 7.65234 1.47641 9.56641 1.80453 10.3594C2.02328 10.9062 2.43344 11.3164 2.98031 11.5352C3.77328 11.8633 5.68734 11.7812 6.58969 11.7812C7.46469 11.7812 9.37875 11.8633 10.1991 11.5352C10.7186 11.3164 11.1561 10.9062 11.3475 10.3594Z" fill="#BEBDBD"/>
</svg>
