<svg width="29" height="29" viewBox="0 0 29 29" fill="none" xmlns="http://www.w3.org/2000/svg">
<path d="M20.7877 1.37109H7.51388C3.84841 1.37109 0.876953 4.31687 0.876953 7.95066V21.1098C0.876953 24.7436 3.84841 27.6894 7.51388 27.6894H20.7877C24.4532 27.6894 27.4247 24.7436 27.4247 21.1098V7.95066C27.4247 4.31687 24.4532 1.37109 20.7877 1.37109Z" stroke="white" stroke-width="1.5" stroke-linecap="round" stroke-linejoin="round"/>
<path d="M19.4591 13.7064C19.6229 14.8016 19.4342 15.9201 18.9199 16.9028C18.4055 17.8855 17.5917 18.6824 16.5941 19.1802C15.5966 19.6779 14.4661 19.8512 13.3635 19.6753C12.2609 19.4994 11.2423 18.9833 10.4526 18.2005C9.66291 17.4176 9.14232 16.4078 8.9649 15.3147C8.78748 14.2217 8.96224 13.101 9.46434 12.112C9.96644 11.1231 10.7703 10.3163 11.7616 9.80636C12.7529 9.29645 13.8811 9.10938 14.9858 9.27178C16.1127 9.43744 17.1559 9.95798 17.9614 10.7565C18.7669 11.5551 19.292 12.5893 19.4591 13.7064Z" stroke="white" stroke-width="1.5" stroke-linecap="round" stroke-linejoin="round"/>
<path d="M21.4521 7.29688H21.4637" stroke="white" stroke-width="1.5" stroke-linecap="round" stroke-linejoin="round"/>
</svg>
