<svg width="34" height="32" viewBox="0 0 34 32" fill="none" xmlns="http://www.w3.org/2000/svg">
<path d="M23.5994 10.4336C26.1008 10.4336 28.4997 11.4187 30.2684 13.1721C32.0372 14.9256 33.0308 17.3038 33.0308 19.7835V30.6917H26.7432V19.7835C26.7432 18.9569 26.412 18.1642 25.8224 17.5797C25.2328 16.9952 24.4332 16.6669 23.5994 16.6669C22.7656 16.6669 21.966 16.9952 21.3764 17.5797C20.7868 18.1642 20.4556 18.9569 20.4556 19.7835V30.6917H14.168V19.7835C14.168 17.3038 15.1616 14.9256 16.9304 13.1721C18.6991 11.4187 21.098 10.4336 23.5994 10.4336Z" stroke="white" stroke-width="1.5" stroke-linecap="round" stroke-linejoin="round"/>
<path d="M7.88137 12H1.59375V30.6998H7.88137V12Z" stroke="white" stroke-width="1.5" stroke-linecap="round" stroke-linejoin="round"/>
<path d="M4.73756 7.31921C6.47384 7.31921 7.88137 5.92385 7.88137 4.20257C7.88137 2.4813 6.47384 1.08594 4.73756 1.08594C3.00128 1.08594 1.59375 2.4813 1.59375 4.20257C1.59375 5.92385 3.00128 7.31921 4.73756 7.31921Z" stroke="white" stroke-width="1.5" stroke-linecap="round" stroke-linejoin="round"/>
</svg>
