<svg width="20" height="24" viewBox="0 0 20 24" fill="none" xmlns="http://www.w3.org/2000/svg">
<path d="M16.1484 12.9102C16.1484 13.0117 15.9961 16.0078 19.2969 17.582C18.6875 19.4609 16.5547 23.625 14.0664 23.625C12.6445 23.625 11.832 22.7109 10.207 22.7109C8.53125 22.7109 7.61719 23.625 6.34766 23.625C3.91016 23.7266 1.57422 19.1562 0.914062 17.2773C0.40625 15.8555 0.203125 14.4844 0.203125 13.1641C0.203125 8.64453 3.19922 6.46094 6.04297 6.41016C7.41406 6.41016 9.14062 7.375 9.90234 7.375C10.6133 7.375 12.5938 6.20703 14.4219 6.35938C16.3008 6.51172 17.7227 7.22266 18.6875 8.59375C17.0117 9.66016 16.1484 11.0312 16.1484 12.9102ZM13.3047 4.58203C12.2891 5.75 11.0703 6.41016 9.75 6.30859C9.64844 4.9375 10.1562 3.66797 11.0703 2.65234C11.8828 1.73828 13.3047 0.976562 14.5234 0.875C14.5234 1.43359 14.6758 2.95703 13.3047 4.58203Z" fill="white"/>
</svg>
