<svg width="36" height="29" viewBox="0 0 36 29" fill="none" xmlns="http://www.w3.org/2000/svg">
<path d="M34.6427 1.03428C33.1982 2.02501 31.5989 2.78276 29.9063 3.27835C28.9979 2.26267 27.7905 1.54278 26.4476 1.21604C25.1047 0.889311 23.691 0.971498 22.3976 1.45149C21.1043 1.93149 19.9938 2.78613 19.2163 3.89983C18.4388 5.01352 18.0318 6.33255 18.0503 7.6785V9.14521C15.3995 9.21205 12.7729 8.64039 10.4043 7.48115C8.03572 6.3219 5.99875 4.61106 4.47479 2.501C4.47479 2.501 -1.55878 15.7014 12.0168 21.5683C8.91027 23.6187 5.20962 24.6468 1.45801 24.5017C15.0335 31.8353 31.6259 24.5017 31.6259 7.6345C31.6245 7.22595 31.5841 6.81841 31.5052 6.41712C33.0447 4.94087 34.1311 3.07699 34.6427 1.03428Z" stroke="white" stroke-width="1.5" stroke-linecap="round" stroke-linejoin="round"/>
</svg>
