<svg width="153" height="157" viewBox="0 0 153 157" fill="none" xmlns="http://www.w3.org/2000/svg">
<ellipse cx="76.5" cy="78.4998" rx="76.5" ry="77.5223" fill="white" fill-opacity="0.08"/>
<path d="M152.85 78.4998C152.85 121.233 118.665 155.872 76.5 155.872C34.3349 155.872 0.15 121.233 0.15 78.4998C0.15 35.7664 34.3349 1.12754 76.5 1.12754C118.665 1.12754 152.85 35.7664 152.85 78.4998Z" stroke="white" stroke-opacity="0.42" stroke-width="0.3"/>
<path d="M137.85 78.5005C137.85 112.839 110.381 140.672 76.5 140.672C42.6192 140.672 15.15 112.839 15.15 78.5005C15.15 44.1621 42.6192 16.3287 76.5 16.3287C110.381 16.3287 137.85 44.1621 137.85 78.5005Z" fill="white" fill-opacity="0.17" stroke="white" stroke-width="0.3"/>
<ellipse cx="76.5" cy="78.4998" rx="46.5" ry="47.1214" fill="white"/>
<path d="M73.0184 86.8283L81.6299 79.4595C81.7687 79.3408 81.88 79.1934 81.9564 79.0276C82.0327 78.8618 82.0723 78.6815 82.0723 78.499C82.0723 78.3165 82.0327 78.1362 81.9564 77.9704C81.88 77.8046 81.7687 77.6573 81.6299 77.5385L73.0184 70.1697C72.1964 69.4665 70.9268 70.0495 70.9268 71.1302V85.8699C70.9268 86.9506 72.1964 87.5337 73.0184 86.8283Z" fill="#3B3A5D"/>
</svg>
