<svg width="36" height="25" viewBox="0 0 36 25" fill="none" xmlns="http://www.w3.org/2000/svg">
<path d="M33.6687 4.61644C33.4895 3.90951 33.1246 3.26179 32.6108 2.73872C32.097 2.21564 31.4526 1.83572 30.7425 1.63733C28.1482 1.01172 17.771 1.01172 17.771 1.01172C17.771 1.01172 7.39383 1.01172 4.79953 1.69691C4.08949 1.8953 3.44503 2.27522 2.93125 2.7983C2.41747 3.32138 2.05257 3.96909 1.8734 4.67602C1.3986 7.27612 1.16635 9.91375 1.17957 12.5558C1.16265 15.2176 1.39491 17.8754 1.8734 20.4951C2.07093 21.18 2.444 21.8031 2.95659 22.3041C3.46917 22.8051 4.10392 23.167 4.79953 23.355C7.39383 24.0402 17.771 24.0402 17.771 24.0402C17.771 24.0402 28.1482 24.0402 30.7425 23.355C31.4526 23.1566 32.097 22.7767 32.6108 22.2536C33.1246 21.7305 33.4895 21.0828 33.6687 20.3759C34.1398 17.7954 34.372 15.1779 34.3625 12.5558C34.3794 9.89385 34.1472 7.23611 33.6687 4.61644Z" stroke="white" stroke-width="1.5" stroke-linecap="round" stroke-linejoin="round"/>
<path d="M14.4541 17.4592L22.7503 12.5245L14.4541 7.58984V17.4592Z" stroke="white" stroke-width="1.5" stroke-linecap="round" stroke-linejoin="round"/>
</svg>
